<?xml version="1.0" encoding="UTF-8"?>
<svg id="Layer_1" data-name="Layer 1" xmlns="http://www.w3.org/2000/svg" xmlns:xlink="http://www.w3.org/1999/xlink" viewBox="0 0 1901.65 1030.96">
  <defs>
    <style>
      .cls-1, .cls-2 {
        fill: #096b72;
      }

      .cls-3 {
        filter: url(#drop-shadow-2);
      }

      .cls-4, .cls-5 {
        fill: #f3dfbf;
      }

      .cls-4, .cls-6, .cls-2 {
        fill-rule: evenodd;
      }

      .cls-7 {
        filter: url(#drop-shadow-6);
      }

      .cls-8 {
        filter: url(#drop-shadow-5);
      }

      .cls-9 {
        filter: url(#drop-shadow-4);
      }

      .cls-10 {
        fill: #2e543e;
      }

      .cls-11 {
        filter: url(#drop-shadow-1);
      }

      .cls-6 {
        fill: #fff0d9;
      }

      .cls-12 {
        filter: url(#drop-shadow-3);
      }
    </style>
    <filter id="drop-shadow-1" x="732.66" y="586.07" width="251" height="134" filterUnits="userSpaceOnUse">
      <feOffset dx="6" dy="7"/>
      <feGaussianBlur result="blur" stdDeviation="7"/>
      <feFlood flood-color="#000" flood-opacity=".55"/>
      <feComposite in2="blur" operator="in"/>
      <feComposite in="SourceGraphic"/>
    </filter>
    <filter id="drop-shadow-2" x="863.66" y="578.07" width="568" height="170" filterUnits="userSpaceOnUse">
      <feOffset dx="6" dy="7"/>
      <feGaussianBlur result="blur-2" stdDeviation="7"/>
      <feFlood flood-color="#000" flood-opacity=".55"/>
      <feComposite in2="blur-2" operator="in"/>
      <feComposite in="SourceGraphic"/>
    </filter>
    <filter id="drop-shadow-3" x="1282.66" y="495.07" width="99" height="255" filterUnits="userSpaceOnUse">
      <feOffset dx="5" dy="5"/>
      <feGaussianBlur result="blur-3" stdDeviation="7"/>
      <feFlood flood-color="#000" flood-opacity=".55"/>
      <feComposite in2="blur-3" operator="in"/>
      <feComposite in="SourceGraphic"/>
    </filter>
    <filter id="drop-shadow-4" x="1024.66" y="494.07" width="99" height="256" filterUnits="userSpaceOnUse">
      <feOffset dx="5" dy="5"/>
      <feGaussianBlur result="blur-4" stdDeviation="7"/>
      <feFlood flood-color="#000" flood-opacity=".55"/>
      <feComposite in2="blur-4" operator="in"/>
      <feComposite in="SourceGraphic"/>
    </filter>
    <filter id="drop-shadow-5" x="912.66" y="499.07" width="91" height="226" filterUnits="userSpaceOnUse">
      <feOffset dx="5" dy="5"/>
      <feGaussianBlur result="blur-5" stdDeviation="7"/>
      <feFlood flood-color="#000" flood-opacity=".55"/>
      <feComposite in2="blur-5" operator="in"/>
      <feComposite in="SourceGraphic"/>
    </filter>
    <filter id="drop-shadow-6" x="1353.66" y="403.07" width="266" height="328" filterUnits="userSpaceOnUse">
      <feOffset dx="6" dy="7"/>
      <feGaussianBlur result="blur-6" stdDeviation="7"/>
      <feFlood flood-color="#000" flood-opacity=".55"/>
      <feComposite in2="blur-6" operator="in"/>
      <feComposite in="SourceGraphic"/>
    </filter>
  </defs>
  <g id="castle">
    <g id="layer_4" data-name="layer 4">
      <g id="spine_hall" data-name="spine hall" class="cls-11">
        <path class="cls-5" d="M850.56,630.16v60.64c-.65.11-100.16.8-100.55.94v-40.25h-1.82l.67-1.1v-7.53l-.7-1.08h1.84v-5.64l-.16-.14h65.25l-.05,5.35,1.66.02-.83,1.03v7.76l.7,1.12-1.64.04v10.32h1.98l22.82-.18h.16l2.68-.02,1.35-.02,1.66-5.49.45-9.94-2.16-9.22-.07-6.63h6.75Z"/>
        <polygon class="cls-1" points="816.59 634.7 815.11 636.01 749.86 636.01 748.49 634.79 751.57 629.89 751.57 616.02 750.85 614.76 755.41 614.76 754.6 615.7 754.69 625.4 766.79 607.88 767.22 600.89 767.71 607.84 797.37 607.79 798.11 600.89 798.63 607.99 816.59 634.7"/>
        <polygon class="cls-1" points="850.56 612.51 850.56 630.16 843.82 630.16 841.26 629.82 842.04 628.93 845.28 625.22 850.56 612.51"/>
        <g id="westmost_castle" data-name="westmost castle">
          <polygon class="cls-5" points="953.47 630.16 953.4 637 951.7 644.3 951.25 646.21 951.7 656.15 951.7 690.91 859.18 690.91 850.56 690.81 850.56 630.16 953.47 630.16"/>
          <polygon class="cls-1" points="956.04 629.82 953.49 630.16 850.56 630.16 850.56 612.51 853.42 605.63 853.85 601.47 854.75 605.63 858.3 605.65 938.16 605.65 942.55 605.63 943.47 601.47 943.87 605.63 952.03 625.22 956.04 629.82"/>
        </g>
      </g>
      <g id="castle_wall" data-name="castle wall">
        <g id="walls" class="cls-3">
          <polygon class="cls-5" points="937.53 694.91 879.01 684.99 879.01 633.76 937.53 611.53 937.53 694.91"/>
          <polygon id="wall" class="cls-5" points="1403.94 593.01 1337.75 615.59 1335.7 718.41 1403.94 702.17 1403.94 593.01"/>
          <polygon id="wall-2" data-name="wall" class="cls-4" points="964.27 695.74 1052.13 717.02 1053.54 617.05 964.45 605.47 964.27 695.74"/>
          <rect id="wall-3" data-name="wall" class="cls-5" x="1076.31" y="614.86" width="241.64" height="105.04"/>
        </g>
        <g class="cls-12">
          <path class="cls-6" d="M1308.62,628.36v92.11s17.15,7.48,35.93,0v-90.47l4.8-6.34.86-24.3-46.15-1.09v22.98l4.56,7.11Z"/>
          <path class="cls-1" d="M1354.67,597.22l-2.84,2.5-.22.13s-12.22,2.8-24.66,2.8c-10.33,0-21.82-1.94-24.83-2.5v-.39l-.04-.04-2.88-2.75,8.35-10.5,18.37-62.52,1.03-12.31c0,.47.86,12.35.86,12.35l18.46,62.78,8.39,10.46Z"/>
        </g>
        <g class="cls-9">
          <path class="cls-6" d="M1050.53,628.36v92.11s17.15,7.48,35.93,0v-90.47l4.8-6.34.86-24.3-46.15-1.09v22.98l4.56,7.11Z"/>
          <path class="cls-1" d="M1096.78,596.57l-2.84,2.5-.22.13s-12.22,2.8-24.66,2.8c-10.33,0-21.82-1.94-24.83-2.5v-.39l-.04-.04-2.88-2.75,8.35-10.5,18.37-62.52,1.03-12.31c0,.47.86,12.35.86,12.35l18.46,62.78,8.39,10.46Z"/>
        </g>
        <g class="cls-8">
          <path class="cls-6" d="M937.53,616.23v79.34s14.77,6.44,30.95,0v-77.93l4.13-5.47.74-20.93-39.75-.94v19.8l3.93,6.13Z"/>
          <path class="cls-1" d="M977.36,588.85l-2.45,2.15-.19.11s-10.53,2.41-21.24,2.41c-8.89,0-18.79-1.67-21.38-2.15v-.33l-.04-.04-2.48-2.37,7.19-9.04,15.83-53.85.89-10.6c0,.41.74,10.64.74,10.64l15.9,54.07,7.23,9.01Z"/>
        </g>
      </g>
      <g id="east_wing" data-name="east wing" class="cls-7">
        <polygon class="cls-4" points="1391.82 435.57 1391.82 439.2 1389.87 439.2 1389.87 471.23 1379.49 488.76 1379.49 439.2 1377.5 439.2 1377.5 435.57 1391.82 435.57"/>
        <polygon class="cls-4" points="1591.53 534.7 1591.73 553.7 1586.25 560.25 1586.25 702.17 1375.23 702.17 1375.23 560.25 1370.04 555.3 1369.84 533.7 1375.23 529.04 1375.23 510.79 1586.25 510.79 1586.25 529.04 1591.53 534.7"/>
        <polygon class="cls-2" points="1592.64 506.8 1589.43 510.79 1372.41 510.79 1368.81 506.8 1379.5 488.76 1389.86 471.24 1406.63 442.83 1408.42 417.21 1410.24 442.83 1551.24 442.83 1553.06 417.21 1554.87 442.83 1571.62 471.24 1581.95 488.76 1592.64 506.8"/>
        <polygon class="cls-4" points="1583.95 435.57 1583.95 439.2 1581.99 439.2 1581.95 488.76 1571.62 471.23 1571.62 439.2 1569.62 439.2 1569.62 435.57 1583.95 435.57"/>
      </g>
      <path id="turf" class="cls-10" d="M1649.9,745.06c-8.5,1.77-9.84,9.21-13.91,9.96-10.62,1.91-20.94,2.02-49.11-15.85-28.17-17.9-16.93.38-49.66-4.21-32.74-4.56-26.85-3.8-45.87,8.19-19.04,12-95.35,1.91-99.74-9.52-4.38-11.42-53.67,8.39-71.56,13.52-17.9,5.15-38.83-5.71-51.2.2-12.36,5.89-12.36-2.47-24.75,5.62-12.37,8.12-54.61-5.24-75.75-14.19-21.11-8.94-64.62-8.34-98.19,1.62-35.97,10.66-27.74-.51-72.82-5.03-43.39-4.34-31.84-9.74-47.8-11.83-15.56-2.02-12.25-4.43-20.62-10.52-9.19-6.7-17.49-3.17-25.02-3.8-8.9-.72-22.66-2.32-31.82-5.17-3.73-1.17-8.54-.79-12.9-.03,0,0-.9.14-.92.16-.52.14-1.04.29-1.55.45-.05,0-.09.02-.14.05-.47.13-.97.29-1.46.42-.07.03-.11.05-.18.05-.47.16-.97.29-1.48.43-.41.11-.84.22-1.29.33-.49.12-1.03.25-1.59.36-.68.16-1.4.29-2.16.45-.9.18-1.87.34-2.95.5-.29.04-.6.11-.92.15-1.08.16-2.27.3-3.55.45-14.23,1.62-24.8.66-41.08-.85-21.65-1.98-32.49-2.99-39.73-5.64-2.6-.97-6.34-2.54-11.31-2.07-7.68.74-8.67,5.46-16.43,6.18-5.51.5-10.07-1.44-14.35-3.37.3-.54.63-1.08,1.13-1.6,2.67-2.99,7.91-4.2,11.8-3.08,2.39.68,3.38,1.96,4.79,1.35,1.87-.79,1.28-3.6,3.42-4.79,1.42-.76,2.38.07,4.81,0,2.95-.07,3.62-1.33,5.98-2.2.38-.14.74-.25,1.22-.36,5.55-1.35,8.25,2.16,11.46,0,1.15-.77,1.55-1.76,2.18-2.43.32-.43.74-.72,1.42-.83.85-.14,1.53.18,2.25.49.69.27,1.46.54,2.54.36.9-.13,1.17-.45,1.71-.74.18-.11.4-.2.67-.29.97-.32,1.71-.23,2.5.04,1.44.48,2.85,1.62,5.39,1.87,3.78.31,5.31-1.84,7.56-.52,1.41.83,1.66,2.21,2.88,2.23,1.21,0,1.46-1.22,3.08-1.71,1.39-.43,2.13.16,3.93.34,2.32.22,3.26-.52,5.33-.86,4.45-.76,4.95,1.76,9.08,1.37,4.93-.47,7.6-4.38,9.92-2.96.85.51.76,1.19,1.89,1.75,1.48.74,2.72.09,4.79-.16,3.82-.49,3.95,1.24,7.03.68,1.31-.25,2.25-.75,3.06-1.17,1.06-.61,1.91-1.1,3.1-.72.5.16.72.38.95.58.27.27.54.56,1.26.79,1.26.43,2.07.09,3.21-.02.07-.03.11-.05.18-.07.63-.2,1.31-.36,1.96-.47,2.18-.34,4.45-.16,6.32.58,2.31.88,2.78,1.06,4.31,1.01,3.24-.11.2-1.08,4.43-2.78,1.49-.61,2.25.51,4.54-.48,2.72-1.17,3.74-.99,6.16-1.66.39-.09.77-.18,1.24-.25,5.64-.83,8.03,2.9,11.42,1.04,1.22-.65,1.71-1.6,2.39-2.23t.04-.04h.02c.34-.36.79-.59,1.42-.66.88-.04,1.51.32,2.2.7.68.34,1.4.68,2.5.59.81-.05,1.15-.3,1.62-.52h.02s.09-.05.13-.07c.18-.09.41-.16.7-.22.99-.23,1.71-.07,2.47.27.05.02.09.04.14.06,1.35.63,2.65,1.82,5.08,2.27,3.73.68,5.44-1.34,7.56.18,1.34.95,1.46,2.34,2.67,2.48,1.22.11,1.55-1.08,3.22-1.42,1.44-.31,2.11.34,3.89.7,2.29.43,3.3-.23,5.37-.38,4.52-.36,4.79,2.2,8.93,2.18,4.94-.03,7.98-3.67,10.14-2.05.8.59.67,1.26,1.73,1.91,1.41.88,2.69.34,4.79.27,3.84-.13,3.82,1.6,6.94,1.31,1.33-.12,2.3-.52,3.15-.88,1.1-.52,2-.92,3.15-.43,1.06.45.81,1.01,2.07,1.55,1.62.7,2.54.05,4.47.41l.07-.27.18.04c1.62.47,2.43,1.15,4.14.86,1.07-.21,1.28-.54,2.22-.52,1.55.09,1.96,1.1,3.28.83.99-.2,1.02-.79,1.85-.96.9-.16,1.37.47,1.93,1.23.45.56.99,1.19,1.82,1.67,1.96,1.05,2.48-.59,4.97.54,1.35.6,2.02,1.43,3.22.96.92-.34,1.01-1.01,1.73-1.37,1.91-.97,2.79,3.28,6.05,4.59,2.72,1.08,3.68-1.28,6.52.22,1.34.68,1.79,1.55,3.44,1.73,1.28.14,1.93-.31,2.76.34.99.76.86,1.98,1.69,2.18s1.35-1.1,2.52-1.66c1.84-.9,2.38,1.46,5.03,1.8,1.78.2,3.04-.68,4.14-.88.61-.14,1.12-.09,1.71.38.16.14.29.25.38.38.31.39.4.75.99,1.02.7.36,1.28.22,1.82.09.59-.18,1.1-.36,1.66-.09.43.22.66.58.77,1.05.27.74.29,1.78.9,2.72,1.66,2.66,4.36-.29,7.82,1.96.29.2.52.36.74.56,1.4,1.26,1.56,2.59,3.56,3.15,1.64.49,2.49-.16,3.28.83.76,1.01.25,1.55,1.51,2.59,2.81-.25,1.86,1.08,3.53.4,1.37-.56,1.52-.97,2.81-1.28,2.13-.5,3.08.31,4.79-.43,1.25-.56,1.01-1.12,2.06-1.57,1.15-.5,2.05-.07,3.15.43.86.36,1.82.76,3.15.89,3.12.27,3.12-1.64,6.95-1.3.9.09,1.55.5,1.53.02-.05-1.26.06-3.89.06-5.19.34-.52,1.73-.36,2.27-.83,2.95-2.75,8.28-3.49,12.05-2,2.32.87,3.18,2.24,4.64,1.77,1.93-.6,1.62-3.46,3.84-4.47,1.49-.63,2.36.29,4.79.45,2.95.2,3.73-.99,6.16-1.67.38-.09.77-.18,1.24-.24,5.66-.83,8.02,2.9,11.42,1.03,1.21-.65,1.71-1.6,2.38-2.22.36-.39.81-.63,1.49-.7.87-.05,1.5.31,2.2.7.67.33,1.42.67,2.49.58.93-.04,1.22-.34,1.78-.58.18-.09.43-.16.7-.23.99-.22,1.71-.07,2.47.27,1.4.61,2.7,1.87,5.22,2.36,3.73.65,5.44-1.37,7.55.16,1.35.97,1.46,2.34,2.68,2.47,1.21.11,1.57-1.08,3.21-1.41,1.44-.3,2.12.33,3.89.69,2.3.43,3.31-.22,5.4-.38,4.5-.36,4.76,2.2,8.92,2.18,4.95-.02,7.96-3.66,10.14-2.04.79.58.66,1.25,1.71,1.91,1.42.87,2.7.33,4.79.27,3.85-.14,3.82,1.59,6.95,1.32,1.33-.13,2.32-.54,3.15-.9,1.1-.51,2-.92,3.17-.42.42.18.65.4.83.6h.13c2.43.16,3.78.65,6.12.07,1.46-.36,1.64-.72,2.99-.85,2.25-.21,3.1.67,4.9.18,1.35-.34,1.19-.93,2.32-1.22,1.23-.31,2.09.2,3.12.81.83.45,1.78.97,3.08,1.24,3.13.67,3.33-.97,7.22-.34,2.11.32,3.35.99,4.88.34,1.17-.5,1.91-.07,3.24-.54,5.73-2.07,2.02.49,7.03,1.14,4.21.54,6.55-.8,11.07.09,2.09.41,2.06.75,4.16-.09,1.7-.67,3.1-.44,4.51.03,1.62.54,1.31-.07,2.55-.03,1.25.03,3.23-.74,5.35-.29,2.78.63,3.05,1.33,7.08-.27,2.43-.96,3.66.9,5.15.52.81-.22,1.57-.27,2.56.07.27.09.5.18.68.29.53.31,1.05-.2,1.97-.05,1.11.23,2.05.12,2.77-.11.74-.27,1.01.16,1.89.32.67.13,1.1.42,1.41.85.61.68.99,1.64,2.14,2.41,3.19,2.2,6.09-1.04,11.69.47.5.13.86.25,1.24.4,2.38.93,3.01,2.16,6.02,2.34,2.48.16,3.49-.58,4.91.2,2.13,1.22.96,1.17,2.94.7,1.15-.29.76.41,1.96-.09,1.03-.45.04-1.68,1.26-1.59t-.05-.03c.23,0,2.09.21,2.29.21-.02-.03-.04-.03-.06-.03l-.05-8.99.68-.32c2.38-.15,3.75.18,5.93-.71,1.37-.59,1.53-.97,2.79-1.31,2.16-.47,3.1.32,4.81-.43,1.26-.54,1.01-1.1,2.07-1.57,1.15-.47,4.68-.88,5.78-.36.85.36,3.1-.92,4.43-.81,3.12.29.04-1.24,3.89-1.1,2.09.07,4.85.7,5.66.11,2.16-1.62,4.63.63,9.58.65,4.14.03,4.97-1.14,9.47-.78,2.09.15,3.1.81,5.39.36,1.78-.34,2.45-.99,3.89-.68,1.67.34,2,1.53,3.22,1.42,1.21-.14,1.32-1.53,2.67-2.47,2.12-1.53,3.82.47,7.56-.18,2.52-.48,3.82-1.74,5.21-2.34.77-.34,1.49-.5,2.48-.27.29.06.51.13.69.22.57.25.88.54,1.78.59,1.1.09,1.82-.25,2.5-.59.69-.38,1.32-.74,2.2-.7.67.05,1.12.32,1.48.7.68.63,1.17,1.58,2.39,2.23,3.39,1.86,5.77-1.87,11.42-1.04.47.07.85.16,1.23.25,2.43.65,3.22,1.84,6.17,1.66,2.42-.15,3.3-1.07,4.78-.44,2.25.98,5.87,1.25,7.81,1.88,1.46.48,1.28.61,3.59-.27,1.49-.58.34.25,2.07.36,0,0,4-.65,6.27-1.28,1.44-.4,1.62-.78,2.93-.96,2.2-.23,3.06.67,4.81.13,1.33-.38,1.15-.99,2.25-1.3,1.19-.36,2.04.15,3.08.78.78.45,1.73.97,3.01,1.26,3.08.63,3.26-1.1,7.06-.49,2.07.29,3.28.99,4.79.27,1.15-.52,1.06-1.19,1.93-1.69,2.36-1.37,4.93,2.61,9.83,3.22,4.13.49,4.7-2.03,9.13-1.13,2.04.38,2.96,1.15,5.3.99,1.8-.13,2.57-.7,3.94-.25,1.59.54,1.77-.09,2.99-.04,1.21,0,1.55.49,2.99-.32,2.27-1.25,3.75.95,7.53.72,2.54-.18,3.98-1.28,5.44-1.73.79-.24,1.53-.31,2.5.02.27.09.49.21.67.32.52.29.79.63,1.69.79,1.05.2,1.84-.05,2.54-.3.72-.29,1.41-.6,2.27-.45.65.14,1.01.5,1.39.88,2.75,2.7,7.83-1.55,13.31-.13.05,0,.09,0,.14.02.45.11,2.45,1.69,2.83,1.82,2.16.88,3.44,3.51,9.47,5.78.56.22,1.12.52,1.59.92,4.25,3.58,3.51,5.24,8.37,8.97,5.06,3.94,13.06,7.6,18.82,10.32,8.79,4.16,27.92,8.4,31.07,11.9,1.35,1.49-2,3.49-8.19,4.8Z"/>
    </g>
  </g>
</svg>