<?xml version="1.0" encoding="UTF-8"?>
<svg id="Layer_1" xmlns="http://www.w3.org/2000/svg" version="1.1" xmlns:xlink="http://www.w3.org/1999/xlink" viewBox="0 0 1901.65 1030.96">
  <!-- Generator: Adobe Illustrator 29.8.5, SVG Export Plug-In . SVG Version: 2.1.1 Build 2)  -->
  <defs>
    <style>
      .st0, .st1 {
        fill: #deccae;
      }

      .st2 {
        fill: #4d4d4d;
        filter: url(#drop-shadow-1);
      }

      .st2, .st1 {
        fill-rule: evenodd;
      }

      .st3 {
        filter: url(#drop-shadow-2);
      }

      .st4 {
        filter: url(#drop-shadow-4);
      }

      .st5 {
        filter: url(#drop-shadow-3);
      }

      .st6 {
        fill: #096b72;
      }
    </style>
    <filter id="drop-shadow-1" x="943.66" y="-12.93" width="982" height="811">
      <feOffset dx="6" dy="6"/>
      <feGaussianBlur result="blur" stdDeviation="6"/>
      <feFlood flood-color="#000" flood-opacity=".6"/>
      <feComposite in2="blur" operator="in"/>
      <feComposite in="SourceGraphic"/>
    </filter>
    <filter id="drop-shadow-2" x="987" y="41.96" width="142" height="480" filterUnits="userSpaceOnUse">
      <feOffset dx="4" dy="3"/>
      <feGaussianBlur result="blur" stdDeviation="5"/>
      <feFlood flood-color="#000" flood-opacity=".65"/>
      <feComposite in2="blur" operator="in"/>
      <feComposite in="SourceGraphic"/>
    </filter>
    <filter id="drop-shadow-3" x="1329" y="-12.04" width="142" height="586" filterUnits="userSpaceOnUse">
      <feOffset dx="4" dy="3"/>
      <feGaussianBlur result="blur1" stdDeviation="5"/>
      <feFlood flood-color="#000" flood-opacity=".65"/>
      <feComposite in2="blur1" operator="in"/>
      <feComposite in="SourceGraphic"/>
    </filter>
    <filter id="drop-shadow-4" x="945" y="394.96" width="505" height="343" filterUnits="userSpaceOnUse">
      <feOffset dx="4" dy="3"/>
      <feGaussianBlur result="blur2" stdDeviation="5"/>
      <feFlood flood-color="#000" flood-opacity=".65"/>
      <feComposite in2="blur2" operator="in"/>
      <feComposite in="SourceGraphic"/>
    </filter>
  </defs>
  <g id="castle">
    <g id="layer_3">
      <g id="middle_castle">
        <path id="bridge" class="st2" d="M1901.65,645.97v17.28c-5.69-6.45-12.51-7.67-15.61-7.67-21.46,0-38.98,20.02-39.77,45.09-.02.6-.04,1.2-.04,1.81,0,2.89-1.26,32.18-1.36,44.72-.04,2.87,0,25.73.12,26.35h-10.05c.21-.7.94-27.34.94-29.53,0-19.36.51-28.52.47-38.54v-9.28c0-27.4-18.28-48.49-43.8-48.49s-46.22,22.22-46.22,49.62c0,.49-.02,1.53-.06,3.01-.23,8.62-1.03,31.83-.89,42.08.02,2.39.08,25.61.23,26.25h-10.99c.04-.35.08-23.36.12-25.59.23-10.74.49-38.88.49-40.61,0-.91-.02-1.83-.08-2.72-1.22-25.3-19.56-45.38-41.97-45.38s-41.03,20.39-42.01,45.97c-.04.7-.06,1.42-.06,2.14,0,.76-.17,18.74-.21,28.31-.02,1.57-.02,2.91-.02,3.92,0,1.09,0,1.79.02,1.92l-12.58-3.88h-.02l-45.13-13.87h-.02l-164.19-18.12.65-42.15c7.28-.82,145.15-16.11,152.92-16.85,88.5-8.35,206.47-11.11,319.13,4.19v.02Z"/>
        <g id="west_tower" class="st3">
          <path class="st1" d="M1017.35,292.97v202.93s34.17,16.48,71.62,0v-199.31l9.56-13.98,1.71-53.53-91.98-2.41v50.63l9.09,15.67h0Z"/>
          <path class="st6" d="M1109.85,226.06l-5.69,5-.43.26s-24.5,5.61-49.43,5.61c-20.7,0-43.74-3.88-49.78-5v-.78l-.09-.09-5.78-5.52,16.74-21.05,36.84-125.35,2.07-24.67c0,.95,1.73,24.76,1.73,24.76l37.01,125.87,16.82,20.96h0Z"/>
        </g>
        <g id="central_tower" class="st5">
          <polygon class="st1" points="1442.18 173.15 1440.47 241.08 1430.91 258.82 1430.91 511.75 1430.9 511.75 1430.9 555.29 1359.29 555.29 1359.29 254.23 1350.2 234.34 1350.2 170.09 1442.18 173.15"/>
          <path class="st6" d="M1451.79,171.59l-5.69,5-.43.26s-24.5,5.61-49.43,5.61c-20.7,0-43.74-3.88-49.78-5v-.78l-.09-.09-5.78-5.52,16.74-21.05,36.84-125.35L1396.24,0c0,.95,1.73,24.76,1.73,24.76l37.01,125.87,16.82,20.96h0Z"/>
        </g>
        <g id="west_hall" class="st4">
          <polygon class="st0" points="968.87 484.3 1137.01 484.3 1137.01 632.76 967.25 631.64 968.87 484.3"/>
          <path class="st0" d="M1430.91,554.33l-1.96,146.45-9.65,1.81s-.09.02-.13.02l-92.04,17.3h-261.24l-96.48-23.11-.94-.27-.07-142.2h462.51Z"/>
          <polygon class="st6" points="1151.04 493.73 956.04 493.73 990.93 408.14 1044.42 407.87 1053.52 407.82 1062.65 407.87 1116.12 408.14 1151.04 493.73"/>
        </g>
      </g>
      <g id="Car">
        <g>
          <circle class="st6" cx="1773.88" cy="633.67" r="2.59"/>
          <circle class="st6" cx="1790.8" cy="634.1" r="2.59"/>
        </g>
        <path class="st6" d="M1796.31,632.2l.1-3.15s-.02-.54-.43-1.3c-.43-.76-1.32-2.52-1.59-2.87-.27-.33-.58-.74-1.32-.78-.72-.04-11.87-.31-11.87-.31,0,0-.91-.06-1.4.43-.49.5-3.61,3.81-3.61,3.81l-5.94.45s-1.51.31-1.59,1.4c-.1,1.09-.06,1.94-.06,1.94,0,0-.56-.04-.58.35-.04.41-.02.74-.02.74,0,0,0,.16.33.35.31.19.37.17.5.37.14.21.31.25.47.31l1.38.04v-.39c.04-1.77,1.51-3.17,3.28-3.13,1.77.06,3.17,1.53,3.13,3.3,0,.12-.02.25-.04.37l10.54.27v-.37c.04-1.77,1.51-3.17,3.28-3.13s3.17,1.51,3.13,3.28c0,.14-.02.25-.04.39l1.15.02s.76.06,1.57-1.42l.04-.95-.41-.02h0ZM1782.78,628.65l-4.68-.12c-.23,0-.35-.29-.19-.47l2.84-3.03s.04-.02.06-.02l2.87.08c.12,0,.21.12.17.23l-.8,3.13c-.04.12-.14.19-.27.19h0ZM1789.32,628.82l-5.42-.14c-.12-.02-.19-.12-.17-.23l.8-3.17c.04-.1.14-.17.23-.17l3.59.1c.12,0,.19.06.23.17l.99,3.09c.06.17-.08.35-.25.35h0ZM1794.18,628.94l-3.65-.1c-.1,0-.19-.06-.21-.16l-1.03-3.15c-.06-.16.06-.31.21-.31l3.38.1c.08,0,.16.04.19.12l1.51,2.84c.17.31-.06.68-.41.66h.01Z"/>
      </g>
    </g>
  </g>
</svg>