<?xml version="1.0" encoding="UTF-8"?>
<svg id="Layer_1" xmlns="http://www.w3.org/2000/svg" version="1.1" xmlns:xlink="http://www.w3.org/1999/xlink" viewBox="0 0 1901.65 1030.96">
  <!-- Generator: Adobe Illustrator 29.8.5, SVG Export Plug-In . SVG Version: 2.1.1 Build 2)  -->
  <defs>
    <style>
      .st0 {
        fill: #deccae;
      }

      .st1 {
        filter: url(#drop-shadow-2);
      }

      .st2, .st3 {
        fill-rule: evenodd;
      }

      .st2, .st4 {
        fill: #ccbba0;
      }

      .st5 {
        filter: url(#drop-shadow-5);
      }

      .st3, .st6 {
        fill: #096b72;
      }

      .st7 {
        filter: url(#drop-shadow-4);
      }

      .st8 {
        filter: url(#drop-shadow-1);
      }

      .st9 {
        filter: url(#drop-shadow-3);
      }

      .st10 {
        fill: #394543;
        filter: url(#drop-shadow-6);
      }
    </style>
    <filter id="drop-shadow-1" x="799.66" y="117.07" width="822" height="631">
      <feOffset dx="7" dy="7"/>
      <feGaussianBlur result="blur" stdDeviation="7"/>
      <feFlood flood-color="#000" flood-opacity=".65"/>
      <feComposite in2="blur" operator="in"/>
      <feComposite in="SourceGraphic"/>
    </filter>
    <filter id="drop-shadow-2" x="1427" y="119.96" width="186" height="507" filterUnits="userSpaceOnUse">
      <feOffset dx="5" dy="4"/>
      <feGaussianBlur result="blur" stdDeviation="5"/>
      <feFlood flood-color="#000" flood-opacity=".65"/>
      <feComposite in2="blur" operator="in"/>
      <feComposite in="SourceGraphic"/>
    </filter>
    <filter id="drop-shadow-3" x="864" y="466.96" width="197" height="262" filterUnits="userSpaceOnUse">
      <feOffset dx="5" dy="4"/>
      <feGaussianBlur result="blur1" stdDeviation="5"/>
      <feFlood flood-color="#000" flood-opacity=".65"/>
      <feComposite in2="blur1" operator="in"/>
      <feComposite in="SourceGraphic"/>
    </filter>
    <filter id="drop-shadow-4" x="1189" y="189.96" width="145" height="213" filterUnits="userSpaceOnUse">
      <feOffset dx="5" dy="4"/>
      <feGaussianBlur result="blur2" stdDeviation="5"/>
      <feFlood flood-color="#000" flood-opacity=".65"/>
      <feComposite in2="blur2" operator="in"/>
      <feComposite in="SourceGraphic"/>
    </filter>
    <filter id="drop-shadow-5" x="1007" y="310.96" width="594" height="428" filterUnits="userSpaceOnUse">
      <feOffset dx="5" dy="4"/>
      <feGaussianBlur result="blur3" stdDeviation="5"/>
      <feFlood flood-color="#000" flood-opacity=".65"/>
      <feComposite in2="blur3" operator="in"/>
      <feComposite in="SourceGraphic"/>
    </filter>
    <filter id="drop-shadow-6" x="682" y="671.96" width="1051" height="132" filterUnits="userSpaceOnUse">
      <feOffset dx="6" dy="4"/>
      <feGaussianBlur result="blur4" stdDeviation="5"/>
      <feFlood flood-color="#000" flood-opacity=".65"/>
      <feComposite in2="blur4" operator="in"/>
      <feComposite in="SourceGraphic"/>
    </filter>
  </defs>
  <g id="castle">
    <g id="layer_2">
      <g id="back_castle">
        <g id="spine_tower" class="st8">
          <rect class="st0" x="816.93" y="661.66" width="103.84" height="47.4"/>
          <path class="st0" d="M841.46,624.86l-2.74,2.47,1.13,34.33h-22.91l.25-5.33,1.28-29.18-2.86-2.74v-11.17s7.6,1.53,13,1.53c6.5,0,12.88-1.46,12.88-1.46l.11-.07-.13,11.62h-.01Z"/>
          <path class="st6" d="M843.08,611.93l-1.48,1.3-.11.07s-6.39,1.46-12.88,1.46c-5.4,0-13-1.53-13-1.53l-1.51-1.44,4.36-5.49,9.6-32.67.54-6.43c0,.25.45,6.45.45,6.45l9.65,32.8,4.38,5.46v.02Z"/>
        </g>
        <g id="east_tower" class="st1">
          <path class="st2" d="M1463.48,394.05v135.35l-16.44,70.44s70.44,14.04,117.94,3.23l-.68-73.67v-131.66l13.46-14.25,2.4-54.58-129.48-2.46v51.63l12.79,15.98h0Z"/>
          <path class="st6" d="M1592.69,324.09l-7.97,5.61-.6.29s-34.29,6.28-69.18,6.28c-28.98,0-61.21-4.35-69.66-5.61v-.87l-.12-.1-8.09-6.19,23.42-23.58,51.55-140.44,2.9-27.64c0,1.06,2.41,27.74,2.41,27.74l51.79,141.02,23.54,23.49h0Z"/>
        </g>
        <g id="west_wing" class="st9">
          <polygon class="st2" points="891.33 492.53 891.33 495.23 889.87 495.23 889.87 519.06 882.17 532.11 882.17 495.23 880.69 495.23 880.69 492.53 891.33 492.53"/>
          <rect class="st4" x="879.01" y="637.45" width="154.35" height="71.62"/>
          <polygon class="st2" points="1039.59 566.3 1039.74 580.44 1035.67 585.31 1035.67 690.91 879.01 690.91 879.01 585.31 875.15 581.63 875.01 565.56 879.01 562.08 879.01 548.5 1035.67 548.5 1035.67 562.08 1039.59 566.3"/>
          <polygon class="st3" points="1040.42 545.53 1038.03 548.5 876.92 548.5 874.24 545.53 882.18 532.11 889.87 519.07 902.32 497.94 903.65 478.87 905 497.94 1009.68 497.94 1011.03 478.87 1012.38 497.94 1024.81 519.07 1032.48 532.11 1040.42 545.53"/>
        </g>
        <g id="backmost_tower" class="st7">
          <rect class="st4" x="1205.36" y="257.54" width="102.27" height="126.18"/>
          <polygon class="st6" points="1313.89 259.83 1311.35 260.53 1201.68 260.53 1199.11 259.83 1203.14 250.36 1211.28 210.13 1211.71 201.58 1212.6 210.13 1216.16 210.17 1296.02 210.17 1300.4 210.13 1301.32 201.58 1301.73 210.13 1309.89 250.36 1313.89 259.83"/>
        </g>
        <g id="main_structure" class="st5">
          <rect class="st4" x="1032.48" y="437.03" width="342.16" height="187.62"/>
          <polygon class="st2" points="1032.48 719.66 1580.16 719.66 1580.16 597.78 1564.3 529.41 1032.48 530.84 1032.48 719.66"/>
          <polygon class="st6" points="1388.22 444.8 1017.65 444.8 1083.97 323.09 1185.61 322.7 1202.92 322.64 1220.26 322.7 1321.87 323.09 1388.22 444.8"/>
        </g>
      </g>
      <path id="island" class="st10" d="M1679.3,747.97c-27.3-10.32-57.61-19.98-80.83-39.5-2.06-1.69-4.11-3.51-6.34-4.93-5.72-3.9-12.94-3.38-19.37-3.81-4.43-.36-8.89-.46-13.35-.23-9.52.3-19.2.85-28.92.13-3.17-.24-6.4-.79-9.49-1.09-4.67-.48-9.3-.08-13.97.03-5.1.14-10.45-.77-15.67-.27-5.71.45-11.44,1.78-17.18,1.57-5.59-.06-11.22-1.39-16.98-1.99-6.81-.38-13.6-.41-20.32-1.55-9.68-1.13-19.22,3.21-28.93,3.39-18.95,1.11-39.15-1.51-57.14,6.01-4.47,1.97-5.39,6.4-8.76,9.05-4.87,3.03-10.73.44-16.28-.3-2.84-.54-5.66-.97-8.46-1.56-5.24-1.1-10.77-3.11-16.42-3.58-12.85-.9-25.81.19-38.64-.45-5.79-.29-11.58-.59-17.38-.63-5.99-.09-11.89-.73-17.82-.7-4.84.06-9.75.57-14.57.76-7.79.62-15.44-1.33-23.14-1.84-8.46-.37-18.79-.42-27.22-1.42-8.11-.97-16.46-4.21-24.65-3.08-6.79,1.21-14.49,1.12-21.54,1.88-5.8,1.3-11.21,3.06-17.14,3.11-1.99.12-4.09.14-6,.71-4.47,1.3-7.44,5.37-11.66,6.82-2.11.8-4.4,1-6.65,1.2-4.17.28-8.49,1.22-12.37,1.05-2.91-.09-5.81-1.19-8.48-2.56-4.5-2.28-8.51-4.53-12.59-6.77-2.99-1.58-6.03-3.06-9.64-3.76-4.4-.66-8.88-1.02-13.19-2.12-3.88-.8-7.65-2.31-11.44-3.59-7.38-2.34-14.61-4.22-22.32-5.56-7.68-.93-15.55-1.95-23.2-2.35-4.59-.08-9.29-1.16-13.69-1.6-9.86-.54-20.38-.38-30.13-1.58-6.96-.83-14.39-3.18-21.56-3.24-4.33-.04-8.48.79-12.77,1.12-3.67.33-7.85.21-11.97.98-6.6,1.54-13.15,3.38-19.99,2.65-6.59-.68-13.06.03-19.73.05-5.3-.02-10.49-.66-15.79-.24-10.86.83-22.22,1.77-33,.41-5.12-.67-10.46-1.25-15.56-.51-5.95,1.04-11.09,2.54-17.64,3.22-3.39.35-6.76,1.06-9.91,2.36-4.34,1.84-8.51,2.91-13.3,3.42-4.03.27-7.53,2.47-10.43,5.13-1.79,1.44-3.59,2.84-5.73,3.69-4.39,1.77-10.22,1.02-14.92,2.65-1.52.53-3.27,1.09-3.94,2.49-.09.15-.05.48.05.66.36.74,1.92,1.15,4.14,1.1,46.38-4.56,96.25,1.74,143.33,2.31,11.57.39,24.04-2.93,35.55.79,5.38,1.71,8.92,5.3,14.03,6.76,3.1.94,6.46,1,9.68,1.06,3.04.17,6.74-.15,8.81,2.16,2.01,2.24.5,6.57.87,9.52.67,6.13,8.94,8.53,14.25,10.25,3.98,1.13,7.58,1.53,11.45,2.22,19.56,3.18,33.56,19.03,55.86,25.32,5.52,1.58,11.56,2.15,17.07,1.94,87.47-6.97,150.7-2.15,262.17,8.81,12.27-.1,24.26-2.94,36.26-4.3,30.43-4.01,58.33-5.87,86.17-4.92,41.13,1.1,80.7,9.1,135.57,9.95,3.69-.14,7.3-.54,10.81-1.11,59.1-11.43,114.09-10.13,165.78-18.46,2.24-.36,4.32-.72,5.79-1.08.66-.16,1.2-.32,1.59-.49.35-.15.57-.3.67-.46.27-.6-.69-.93-1.13-1.23-2.24-1.15-7.98-3.19-12.8-5.25-6.29-2.5-11.66-5.79-17.65-8.52l-.17-.08-.04-.02Z"/>
    </g>
  </g>
</svg>