<?xml version="1.0" encoding="UTF-8"?>
<svg id="Layer_1" data-name="Layer 1" xmlns="http://www.w3.org/2000/svg" xmlns:xlink="http://www.w3.org/1999/xlink" viewBox="0 0 1902.19 1030.96">
  <defs>
    <style>
      .cls-1 {
        fill: url(#linear-gradient);
        fill-rule: evenodd;
      }
    </style>
    <linearGradient id="linear-gradient" x1="951.1" y1="765.71" x2="951.1" y2="688.52" gradientUnits="userSpaceOnUse">
      <stop offset="0" stop-color="#096b72"/>
      <stop offset=".34" stop-color="#27868b"/>
      <stop offset=".94" stop-color="#65bfbf"/>
    </linearGradient>
  </defs>
  <path id="lake" class="cls-1" d="M1902.19,737.1v293.86H0v-341.16c21.27-4.15,67.8-9.79,131.03,1.91,112.28,20.81,142.26-13.26,231.29-1.49,138.99,18.36,198.25-17.3,286.74-8.51,93.52,9.31,126.94-24.51,216.24-3.82,53.8,12.46,67.53-10.2,95.85,3.25,31.17,14.81,68.83-18.4,97.14-11.54,80.47,19.49,91.16-6.26,167.86,13.54,118.64,30.62,91.34-22.2,193.31.54,127.65,28.47,104.42-15.88,148.43.28,38.48,14.13,61.05-2.26,102.25,4.33,68.32,10.93,84.99-15.38,107.74-8.52,71.13,21.46,42.01-4.41,72.88,8.86,18.65,8.02,36.42,1.26,51.27,2.63v45.8c.05.02.11.02.16.04Z"/>
</svg>