<?xml version="1.0" encoding="UTF-8"?>
<svg id="Layer_1" data-name="Layer 1" xmlns="http://www.w3.org/2000/svg" xmlns:xlink="http://www.w3.org/1999/xlink" viewBox="0 0 1901.65 1030.96">
  <defs>
    <style>
      .cls-1 {
        fill: url(#linear-gradient);
      }
    </style>
    <linearGradient id="linear-gradient" x1="950.82" y1="745.62" x2="950.82" y2="1030.96" gradientUnits="userSpaceOnUse">
      <stop offset="0" stop-color="#65bfbf"/>
      <stop offset=".22" stop-color="#61bbbb"/>
      <stop offset=".42" stop-color="#55b1b2"/>
      <stop offset=".62" stop-color="#429fa2"/>
      <stop offset=".82" stop-color="#28878c"/>
      <stop offset="1" stop-color="#096b72"/>
    </linearGradient>
  </defs>
  <path id="surface_water" data-name="surface water" class="cls-1" d="M1184.62,763.73c-21.35-7.92-75.32-20.67-110.44-7.67-50.56,18.71-110.44-12.21-146.33-10.36-29.35,1.51-52.73,9.71-87.03,5.28-23.37-3.02-51.26-12.35-123.75,6.2-126.41,32.33-146.97,18.22-219.87,7.64-125.35-18.19-149.81,23.35-240.43,5.88-82.3-15.87-70.55,5.88-186.35,11.75-12.67.65-48.42-3.5-70.44-6.79v255.29h1901.65v-264.98c-.05-.02-.11-.02-.16-.04-25.38-4.46-39.51-2.57-52.55-.61-2.1.32-4.17.63-6.25.93-10.98,1.53-23.55,6.07-40.46-1.19-72.11-30.94-95.67,13.05-182.53-3.33-26.48-4.99-51.65,18.83-89.41,3.93-51.03-20.13-71.82,24-159.79-7.64-51.95-18.69-106.86,36.2-182.69,6.76"/>
</svg>