<?xml version="1.0" encoding="UTF-8"?>
<svg xmlns="http://www.w3.org/2000/svg" version="1.1" xmlns:xlink="http://www.w3.org/1999/xlink" viewBox="0 0 621 551">
  <!-- Generator: Adobe Illustrator 29.8.5, SVG Export Plug-In . SVG Version: 2.1.1 Build 2)  -->
  <defs>
    <style>
      .st0 {
        filter: url(#drop-shadow-1);
      }

      .st1 {
        fill: #f3dfbf;
      }
    </style>
    <filter id="drop-shadow-1" x="10" y="9.65" width="619" height="550.35" filterUnits="userSpaceOnUse">
      <feOffset dx="24" dy="24"/>
      <feGaussianBlur result="blur" stdDeviation="5"/>
      <feFlood flood-color="#0a1128" flood-opacity=".65"/>
      <feComposite in2="blur" operator="in"/>
      <feComposite in="SourceGraphic"/>
    </filter>
  </defs>
  <g id="Layer_1" class="st0">
    <path class="st1" d="M135.72,44.03c66.5,49.92,138.02,151.14,164.28,205.46,26.26-54.32,97.78-155.54,164.28-205.46,47.98-36.02,125.72-63.89,125.72,24.79,0,17.71-10.16,148.79-16.11,170.07-20.7,73.98-96.14,92.85-163.25,81.43,117.3,19.96,147.14,86.09,82.7,152.22-122.39,125.59-175.91-31.51-189.63-71.77-2.51-7.38-3.69-10.83-3.71-7.9-.02-2.94-1.19.52-3.71,7.9-13.71,40.26-67.23,197.36-189.63,71.77-64.44-66.13-34.6-132.26,82.7-152.22-67.11,11.42-142.55-7.45-163.25-81.43-5.96-21.28-16.11-152.36-16.11-170.07,0-88.69,77.74-60.82,125.72-24.79h0Z"/>
  </g>
</svg>