<?xml version="1.0" encoding="UTF-8"?>
<svg id="Layer_2" data-name="Layer 2" xmlns="http://www.w3.org/2000/svg" xmlns:xlink="http://www.w3.org/1999/xlink" viewBox="0 0 1102.26 1498.03">
  <defs>
    <style>
      .cls-1 {
        filter: url(#drop-shadow-2);
      }

      .cls-2 {
        filter: url(#drop-shadow-9);
      }

      .cls-2, .cls-3 {
        fill: #1f2866;
      }

      .cls-4 {
        filter: url(#drop-shadow-6);
      }

      .cls-5 {
        fill: #e5b4a0;
      }

      .cls-6, .cls-7, .cls-8, .cls-9 {
        fill: #4d4d4d;
      }

      .cls-10 {
        fill: #fff;
      }

      .cls-11 {
        fill: #1b1464;
        filter: url(#drop-shadow-1);
      }

      .cls-12 {
        fill: url(#radial-gradient);
      }

      .cls-13 {
        filter: url(#drop-shadow-7);
      }

      .cls-7 {
        filter: url(#drop-shadow-4);
      }

      .cls-8 {
        filter: url(#drop-shadow-3);
      }

      .cls-14 {
        fill: #666;
      }

      .cls-15 {
        fill: #c28378;
      }

      .cls-16 {
        fill: url(#radial-gradient-2);
      }

      .cls-17 {
        fill: none;
        stroke: #4d4d4d;
        stroke-miterlimit: 10;
        stroke-width: 2px;
      }

      .cls-18 {
        fill: #1a1a1a;
      }

      .cls-19 {
        fill: #6b593b;
      }

      .cls-3 {
        filter: url(#drop-shadow-8);
      }

      .cls-20 {
        fill: #ba7e73;
      }

      .cls-9 {
        filter: url(#drop-shadow-5);
      }
    </style>
    <filter id="drop-shadow-1" x="184.39" y="251.6" width="491" height="590" filterUnits="userSpaceOnUse">
      <feOffset dx="7" dy="7"/>
      <feGaussianBlur result="blur" stdDeviation="5"/>
      <feFlood flood-color="#000" flood-opacity=".55"/>
      <feComposite in2="blur" operator="in"/>
      <feComposite in="SourceGraphic"/>
    </filter>
    <filter id="drop-shadow-2" x="67.39" y="635.6" width="901" height="600" filterUnits="userSpaceOnUse">
      <feOffset dx="7" dy="7"/>
      <feGaussianBlur result="blur-2" stdDeviation="5"/>
      <feFlood flood-color="#000" flood-opacity=".65"/>
      <feComposite in2="blur-2" operator="in"/>
      <feComposite in="SourceGraphic"/>
    </filter>
    <filter id="drop-shadow-3" x="714.39" y="661.6" width="254" height="312" filterUnits="userSpaceOnUse">
      <feOffset dx="7" dy="7"/>
      <feGaussianBlur result="blur-3" stdDeviation="5"/>
      <feFlood flood-color="#000" flood-opacity=".55"/>
      <feComposite in2="blur-3" operator="in"/>
      <feComposite in="SourceGraphic"/>
    </filter>
    <filter id="drop-shadow-4" x="175.39" y="682.6" width="793" height="553" filterUnits="userSpaceOnUse">
      <feOffset dx="7" dy="7"/>
      <feGaussianBlur result="blur-4" stdDeviation="5"/>
      <feFlood flood-color="#000" flood-opacity=".55"/>
      <feComposite in2="blur-4" operator="in"/>
      <feComposite in="SourceGraphic"/>
    </filter>
    <filter id="drop-shadow-5" x="63.39" y="949.6" width="332" height="286" filterUnits="userSpaceOnUse">
      <feOffset dx="7" dy="7"/>
      <feGaussianBlur result="blur-5" stdDeviation="5"/>
      <feFlood flood-color="#000" flood-opacity=".55"/>
      <feComposite in2="blur-5" operator="in"/>
      <feComposite in="SourceGraphic"/>
    </filter>
    <filter id="drop-shadow-6" x="237.39" y="269.6" width="415" height="526" filterUnits="userSpaceOnUse">
      <feOffset dx="5" dy="6"/>
      <feGaussianBlur result="blur-6" stdDeviation="5"/>
      <feFlood flood-color="#000" flood-opacity=".55"/>
      <feComposite in2="blur-6" operator="in"/>
      <feComposite in="SourceGraphic"/>
    </filter>
    <radialGradient id="radial-gradient" cx="543.15" cy="491.52" fx="543.15" fy="491.52" r="15.17" gradientUnits="userSpaceOnUse">
      <stop offset=".4" stop-color="#6e8a60"/>
      <stop offset="1" stop-color="#504912"/>
    </radialGradient>
    <radialGradient id="radial-gradient-2" cx="399.98" cy="529.55" fx="399.98" fy="529.55" r="17.87" gradientUnits="userSpaceOnUse">
      <stop offset=".43" stop-color="#6e8a60"/>
      <stop offset="1" stop-color="#504912"/>
    </radialGradient>
    <filter id="drop-shadow-7" x="270.39" y="430.6" width="370" height="192" filterUnits="userSpaceOnUse">
      <feOffset dx="4" dy="5"/>
      <feGaussianBlur result="blur-7" stdDeviation="3"/>
      <feFlood flood-color="#000" flood-opacity=".65"/>
      <feComposite in2="blur-7" operator="in"/>
      <feComposite in="SourceGraphic"/>
    </filter>
    <filter id="drop-shadow-8" x="442.39" y="241.6" width="165" height="233" filterUnits="userSpaceOnUse">
      <feOffset dx="5" dy="6"/>
      <feGaussianBlur result="blur-8" stdDeviation="5"/>
      <feFlood flood-color="#000" flood-opacity=".55"/>
      <feComposite in2="blur-8" operator="in"/>
      <feComposite in="SourceGraphic"/>
    </filter>
    <filter id="drop-shadow-9" x="212.39" y="210.6" width="317" height="483" filterUnits="userSpaceOnUse">
      <feOffset dx="5" dy="6"/>
      <feGaussianBlur result="blur-9" stdDeviation="5"/>
      <feFlood flood-color="#000" flood-opacity=".55"/>
      <feComposite in2="blur-9" operator="in"/>
      <feComposite in="SourceGraphic"/>
    </filter>
  </defs>
  <path id="Hair_back" data-name="Hair back" class="cls-11" d="M651.47,659.13c-7.32,6.4-21.44.8-26.1-18.35s-43.98-108.66-47.09-179.55-17.59-172.31-107.11-193.01-161.44-2.59-204.91,49.16c-43.47,51.74-87.96,122.63-68.82,240.61s40.36,133.5,75.55,165.06c35.19,31.56-2.18,84.32,10.48,64.66s19.33-26.66,17.66-34.99-6.45,40.44,10.1,46.35-4.49-5.2-.24-13.48,24.59,3.31,19.62,16.55c-4.96,13.24-22.93,19.62-9.69,16.31s36.88-19.62,35.7-36.17,20.33,7.09,13.24,18.2c-7.09,11.11,16.31-6.86,19.86-28.13s48.13,13,40.35,22.34,51.4-22.33,57.12-45.69,66.46,22.33,87.23,14.02-30.12,4.67-19.73-22.85,26.2-25.42,44.44-26.66,45.16,8.7,51.59-3.32c0,0-14.03.67-14.17-8.65-.15-9.94,1.97-12.9-3.48-15.24-4.17-1.79,12.39-2.04,12.63,5.17s-5.53,13.71-.96,9.5,10.22-11.19,6.74-19.85-13.35-10.1-8.18-11.07,12.03-14.31,8.18-10.95Z"/>
  <g id="body" class="cls-1">
    <path class="cls-5" d="M946.21,824.83v387.81H75.72c4.2-11.98,10.22-27.21,18.51-46.48,44.83-104.17,37.45-135.11,60.21-171.83,6.83-11.02,18.11-22.79,32.08-34.91,49.25-42.7,132.03-89.63,172.28-122.49,12.28-10.02,20.59-18.73,22.8-25.62.52-1.63,1.18-3.23,1.98-4.8,5.82-11.53,18.8-21.72,35.84-30.55,9.03-4.68,19.2-8.98,30.06-12.91,11.68-4.21,24.13-7.99,36.81-11.32h0c8.64-2.27,17.37-4.34,26.02-6.2h.01c15-3.21,29.75-5.82,43.33-7.8,20.8-3.04,38.83-4.63,50.72-4.75,5.62-.06,9.88.21,12.4.8,3.45.81,9.34-.42,17.03-3.02,20.77-7.03,54.61-24.12,88.57-38.15h.01c31.79-13.14,63.69-23.6,85.06-20.64,38.73,5.36,84.7,59.06,136.76,152.86Z"/>
    <path class="cls-5" d="M364.45,723.37s10.09,26.21,14.69,46.26c8.08,35.25,3.3,67.75.73,79.31-6.53,29.44,107.21,64.62,155.67,66.09s119.69-27.9,125.57-48.46,6.61-74.17-10.28-90.32c-16.89-16.15-26.44-20.56-35.25-52.87s-2.2-72.6-13.95-73.75-96.19-15.1-147.6,6.93c-51.4,22.03-85.91,34.51-89.59,66.82Z"/>
  </g>
  <g id="shirt">
    <path class="cls-8" d="M946.21,810.1v140.61c-.12-.28-.23-.56-.35-.85-.46-1.09-.91-2.2-1.38-3.3-3.12-7.48-6.4-15.1-9.82-22.76-1.12-2.52-2.25-5.03-3.4-7.55-.57-1.26-1.15-2.52-1.73-3.77-1.17-2.52-2.34-5.03-3.53-7.54-.59-1.26-1.19-2.51-1.8-3.76-.6-1.25-1.2-2.5-1.81-3.74-.61-1.25-1.22-2.49-1.84-3.73-.61-1.24-1.23-2.48-1.85-3.71t-.01-.02c-.62-1.23-1.24-2.46-1.86-3.68-.63-1.23-1.26-2.46-1.9-3.68-1.18-2.27-2.37-4.54-3.58-6.78-.72-1.37-1.46-2.72-2.2-4.07-.55-1.01-1.11-2.01-1.66-3.01-.1-.18-.2-.36-.3-.54-.53-.95-1.06-1.89-1.59-2.83-.26-.47-.53-.93-.79-1.39-.53-.93-1.06-1.85-1.6-2.77-.07-.13-.14-.26-.22-.38-.59-1.03-1.19-2.04-1.79-3.05-.67-1.14-1.35-2.27-2.03-3.39-.56-.94-1.13-1.87-1.71-2.79-2.94-4.78-5.93-9.4-8.97-13.82-.6-.87-1.2-1.74-1.8-2.59-.02-.04-.05-.07-.07-.11-.59-.83-1.18-1.66-1.77-2.47-.21-.31-.43-.61-.65-.9-.59-.82-1.18-1.62-1.78-2.42-1.43-1.92-2.87-3.8-4.32-5.62-1.78-2.24-3.53-4.42-5.25-6.54-1.14-1.4-2.26-2.77-3.36-4.11-8.45-10.25-16.16-19.02-23.54-26.8-.35-.37-.7-.74-1.05-1.1-1.39-1.46-2.78-2.88-4.15-4.28-.35-.35-.69-.7-1.03-1.04-.34-.35-.69-.69-1.03-1.03-7.72-7.7-15.19-14.43-22.89-20.79-.34-.28-.68-.56-1.02-.84-.14-.11-.28-.23-.42-.35-.88-.71-1.76-1.43-2.65-2.14-.68-.56-1.37-1.1-2.06-1.64-.5-.4-1-.79-1.51-1.19-3.15-2.46-6.36-4.9-9.66-7.34-.54-.4-1.08-.8-1.63-1.2-1.3-.96-2.62-1.93-3.96-2.89-.38-.27-.76-.55-1.14-.82-2.67-1.93-5.41-3.87-8.23-5.85-.4-.28-.8-.57-1.21-.85-2.97-2.09-6.05-4.22-9.23-6.43-.72-.49-1.45-1-2.18-1.5-.14-.1-.28-.2-.43-.3-1.18-.81-2.38-1.63-3.59-2.47-2.26-1.56-4.58-3.15-6.96-4.79-.95-.66-1.91-1.32-2.88-1.99-.48-.33-.97-.67-1.47-1.01-.6-.42-1.22-.84-1.83-1.27-1.87-1.29-3.77-2.6-5.72-3.95-4.65-3.22-9.52-6.62-14.65-10.22-1.14-.8-2.29-1.61-3.45-2.43-1.81-1.28-3.65-2.59-5.53-3.92h-.01c-.53-.37-1.06-.75-1.6-1.14,4.37-1.89,8.76-3.73,13.09-5.48,18.72-7.56,36.37-13.45,46.45-14.55,21.99-2.4,33.12-2.66,46.05,3.81,12.94,6.47,39.85,19.66,83.83,88.74,5.56,8.73,10.2,17.72,16,25.43,7.01,9.32,14.12,15.9,18.01,20.68Z"/>
    <path class="cls-7" d="M945.86,949.86c.12.29.23.57.35.85v261.93H373.05c-16.89-61.82-35.74-91.22-51.82-133.51-21.87-57.52-92.72-96.76-134.71-119.71-.74-.4-1.46-.8-2.18-1.19,11.08-10.19,22.24-19.18,31.24-26.2,27.16-21.18,111.54-68.41,134.25-90.07,3.34-3.19,6.21-4.74,8.97-5.03,6.23-.67,11.87,5.05,20.92,12.97,14.27,12.49,37.01,30.45,83.81,37.44,89.66,13.39,148.45,3.79,152.24,3.5,3.78-.29,30.52-81.43,30.85-95.77.2-8.46-.07-16.28-.67-23.4h0c-1.6-19.08-5.58-32.98-9.55-39.76-.24-.41-.44-.8-.59-1.15-3.4-7.75,12.34-3.75,37.81-18.58,11.6-6.76,31.25-12.95,49.16-20.71.54.39,1.07.77,1.6,1.14h.01c1.88,1.33,3.72,2.64,5.53,3.92,1.16.82,2.31,1.63,3.45,2.43,5.13,3.6,10,7,14.65,10.22,1.95,1.35,3.85,2.66,5.72,3.95.61.43,1.23.85,1.83,1.27.5.34.99.68,1.47,1.01.97.67,1.93,1.33,2.88,1.99,2.38,1.64,4.7,3.23,6.96,4.79,1.21.84,2.41,1.66,3.59,2.47.15.1.29.2.43.3.73.5,1.46,1.01,2.18,1.5,3.18,2.21,6.26,4.34,9.23,6.43.41.28.81.57,1.21.85,2.82,1.98,5.56,3.92,8.23,5.85.38.27.76.55,1.14.82,1.34.96,2.66,1.93,3.96,2.89.55.4,1.09.8,1.63,1.2,3.3,2.44,6.51,4.88,9.66,7.34.51.4,1.01.79,1.51,1.19.69.55,1.38,1.09,2.06,1.64.89.71,1.77,1.43,2.65,2.14.14.12.28.24.42.35.34.28.68.56,1.02.84,7.7,6.36,15.17,13.09,22.89,20.79.34.34.69.68,1.03,1.03.34.34.68.69,1.03,1.04,1.37,1.4,2.76,2.82,4.15,4.28.35.36.7.73,1.05,1.1,7.38,7.78,15.09,16.55,23.54,26.8,1.1,1.34,2.22,2.71,3.36,4.11,1.72,2.12,3.47,4.3,5.25,6.54,1.45,1.82,2.89,3.7,4.32,5.62.6.8,1.19,1.6,1.78,2.42.22.29.44.59.65.9.59.81,1.18,1.64,1.77,2.47.02.04.05.07.07.11.6.85,1.2,1.72,1.8,2.59,3.04,4.42,6.03,9.04,8.97,13.82.58.92,1.15,1.85,1.71,2.79.68,1.12,1.36,2.25,2.03,3.39.6,1.01,1.2,2.02,1.79,3.05.08.12.15.25.22.38.54.92,1.07,1.84,1.6,2.77.26.46.53.92.79,1.39.53.94,1.06,1.88,1.59,2.83.1.18.2.36.3.54.55,1,1.11,2,1.66,3.01.74,1.35,1.48,2.7,2.2,4.07,1.21,2.24,2.4,4.51,3.58,6.78.64,1.22,1.27,2.45,1.9,3.68.62,1.22,1.24,2.45,1.86,3.68t.01.02c.62,1.23,1.24,2.47,1.85,3.71.62,1.24,1.23,2.48,1.84,3.73.61,1.24,1.21,2.49,1.81,3.74.61,1.25,1.21,2.5,1.8,3.76,1.19,2.51,2.36,5.02,3.53,7.54.58,1.25,1.16,2.51,1.73,3.77,1.15,2.52,2.28,5.03,3.4,7.55,3.42,7.66,6.7,15.28,9.82,22.76.47,1.1.92,2.21,1.38,3.3Z"/>
    <path class="cls-9" d="M373.05,1212.64H71.69l.83-2.11c21.03-53.72,58.49-147.62,63.76-182.36,2.46-16.25,13.39-33.16,27.14-48.76h0c6.54-7.43,13.71-14.56,20.91-21.18.72.39,1.44.79,2.18,1.19,41.99,22.95,112.84,62.19,134.71,119.71,16.08,42.29,34.93,71.69,51.82,133.51Z"/>
  </g>
  <g id="Face" class="cls-4">
    <g id="left_eye" data-name="left eye">
      <circle class="cls-10" cx="542.09" cy="491.52" r="29.13"/>
      <circle class="cls-12" cx="543.15" cy="491.52" r="15.17"/>
      <circle class="cls-18" cx="543.15" cy="491.52" r="7.96"/>
      <g id="reflections">
        <ellipse class="cls-10" cx="555.05" cy="493.86" rx="5.68" ry="3.63"/>
        <ellipse class="cls-10" cx="545.44" cy="486.52" rx="3.94" ry="3.27"/>
      </g>
    </g>
    <g id="right_eye" data-name="right eye">
      <circle class="cls-10" cx="402.35" cy="529.55" r="37.75"/>
      <ellipse class="cls-16" cx="399.98" cy="529.55" rx="18.25" ry="17.48"/>
      <circle class="cls-18" cx="399.98" cy="529.55" r="8.7"/>
      <g id="reflections-2" data-name="reflections">
        <ellipse class="cls-10" cx="411.57" cy="533.83" rx="5.68" ry="3.84"/>
        <ellipse class="cls-10" cx="401.96" cy="526.27" rx="3.94" ry="3.27"/>
      </g>
    </g>
    <path id="face" class="cls-5" d="M625.06,545.42c-1.82-5.46-4.27-10.81-7.06-16.12-8.56-16.3-20.33-32.3-26.92-50.14-.3-.83-.6-1.66-.88-2.49-.86-2.56-1.61-5.16-2.23-7.8-.97-4.16-2.51-9.71-4.55-16.25h0c-.24-.77-.48-1.56-.73-2.35-.01-.02-.01-.03-.02-.05-.84-2.66-1.76-5.46-2.75-8.39,0-.02,0-.03-.01-.04-.6-1.77-1.22-3.58-1.87-5.44-.58-1.63-1.17-3.29-1.77-4.97v-.02c-14.01-38.82-37.76-91.59-62.91-113.71-2.8-2.46-5.67-4.81-8.6-7.05-15.89-12.14-33.68-21.01-52.1-26.1-19.52-5.41-39.76-6.57-59.19-2.88-49.46,9.38-86.85,35.44-114.52,80.32-27.35,44.32-40.83,106.93-22.04,166.1,8.8,27.71,16.35,39.04,20.75,43.2h-.09c-11.27-.47-24.1-1.41-27.31,15.97-1.61,8.66.51,20.95,5.02,33.06,1.47,3.97,3.19,7.91,5.13,11.7,3.45,6.76,7.56,13.05,12.08,18.11.74.83,1.5,1.64,2.26,2.4,15.97,15.97,22.75,22.39,28.65,31,8.65,12.62,28.89,10.36,29.67-6.16.82-17.16,12.09,41.4,36.51,60.2h.01c2.32,1.81,4.76,3.24,7.32,4.21,27.4,10.38,49.02,16.46,72.57,21.32,7.97,1.65,16.17,3.16,24.89,4.64,1.59.28,3.19.55,4.82.82,35.69,5.95,55.34,6.97,69.58,2.07,7.4-2.55,13.48-4.68,18.55-6.56h.02c4.21-1.57,7.7-2.97,10.7-4.3h0c13.21-5.84,16.54-10.38,25.1-22.04,1.13-1.54,2.21-3.11,3.23-4.7,3.09-4.78,5.7-9.76,7.93-14.83.56-1.25,1.09-2.5,1.59-3.76,5.92-14.66,8.95-29.83,11.45-42.95,1.09-5.74,2.02-12.25,2.76-19.24,3.78-35.29,2.9-82.94-5.05-106.78ZM364.22,539.28h0c.29-.3.59-.64.94-1.04.12-.14.24-.29.36-.46.37-.54.75-1.22,1.12-1.96.07-.14.14-.28.21-.42.21-.43.42-.87.64-1.3.14-.29.28-.57.43-.85.15-.28.29-.55.43-.81.08-.13.15-.26.22-.38.21-.36.42-.71.63-1.06.21-.35.42-.69.63-1.03.21-.34.42-.67.63-.99.66-1.04,1.32-2.02,1.98-2.96.31-.43.61-.84.91-1.25.08-.12.17-.24.27-.36.31-.41.62-.82.93-1.22.31-.4.62-.79.93-1.16.43-.53.86-1.04,1.3-1.53.21-.24.42-.47.63-.7.24-.28.49-.54.74-.8.17-.18.35-.36.53-.54s.36-.36.54-.54c.24-.24.49-.48.73-.71s.49-.46.73-.68c.49-.45.98-.87,1.47-1.27.22-.18.44-.36.66-.53,1.29-1.02,2.57-1.89,3.85-2.65.26-.16.53-.31.79-.45.27-.15.53-.3.8-.43.29-.15.58-.29.87-.43.01-.01.01,0,.01,0,.06-.04.12-.07.17-.09.17-.08.33-.15.49-.22.15-.07.3-.14.45-.2.05-.02.09-.04.13-.06.3-.12.59-.24.89-.35.06-.03.12-.05.17-.07.29-.11.58-.21.87-.31.34-.12.68-.23,1.02-.33.08-.03.15-.05.23-.07.35-.1.71-.2,1.06-.29.52-.14,1.05-.25,1.58-.35.17-.04.35-.07.52-.1.35-.07.7-.12,1.06-.17.52-.07,1.04-.13,1.57-.18.29-.03.59-.06.89-.07.07-.01.15-.01.23-.01.33-.02.65-.04.98-.05.79-.02,1.58-.02,2.37.01,10.21.36,19.11,3.85,25.22,7.2,3.26,1.79,5.73,3.55,7.17,4.75.01,0,.02.01.02.01,1.27.74,2.21,1.18,2.76,1.18-.16.01-.62.02-1.1.05h-.02c-.62.02-1.26.04-1.26.05-3.45,3.88-10.69,12.62-21.3,17.95-3.46,1.74-7.29,3.12-11.46,3.84-4.77.83-9.78,1.03-14.63.77-8.07-.42-15.73-2.11-21.27-4.26l-.17.17h-.01c-.4.37-.79.56-1.02.63-.19.06-.37.12-.55.17-.84.23-1.62.37-2.28.46-.3.04-.57.07-.82.09-.4.03-.7.04-.88.04.25-.07.81-.41,2.01-1.68ZM560.72,493.69c-1.03,1.03-2.15,2.07-3.33,3.07-.22.19-.43.37-.66.56h-.01s-.01.01-.01.01c-3.73,3.1-7.92,5.79-11.59,6.83-2.59.73-6.07.72-9.83.33,0,0,0-.01-.01-.01h-.01c-7.18-.76-15.31-2.96-19.88-4.27.13-.27.28-.58.44-.92.13-.26.27-.54.42-.84.08-.15.15-.29.23-.45.38-.75.83-1.59,1.33-2.5.03-.07.07-.13.11-.19.28-.51.58-1.03.9-1.57.16-.27.32-.54.49-.82.5-.82,1.05-1.67,1.62-2.52.19-.28.38-.57.6-.86.2-.28.4-.57.61-.85.28-.38.57-.75.86-1.13.29-.37.59-.74.9-1.11.3-.37.61-.73.94-1.08.32-.36.65-.71.98-1.05.62-.63,1.25-1.23,1.91-1.8.32-.27.64-.54.97-.79.33-.26.67-.51,1.01-.75.22-.15.43-.29.64-.42.4-.25.8-.5,1.21-.73.83-.45,1.68-.83,2.55-1.13.39-.13.78-.26,1.16-.38.31-.1.62-.19.93-.28.01-.01.02-.01.02-.01.9-.26,1.77-.47,2.62-.65.35-.08.71-.14,1.05-.2.3-.06.6-.11.89-.15,1.97-.3,3.82-.39,5.56-.34h.01c3.05.1,5.78.66,8.3,1.4.44.13.88.27,1.3.41.36.12.72.24,1.07.37.36.12.7.24,1.05.37h.01c.46.16.9.32,1.33.48.45.17.9.32,1.34.47.28.1.56.2.84.28.4.14.8.27,1.2.39,1.72.52,3.43.94,5.4,1.25-.01.03-.01.05-.02.08h0c-.41,1.46-.83,2.64-1.58,4.16-.92,1.86-3.09,4.58-5.87,7.34Z"/>
    <path id="right_eyelid" data-name="right eyelid" class="cls-15" d="M438.98,521c-.16.01-.62.02-1.1.05h-.02c-.78.03-1.55-.14-2.25-.48-1.51-.74-5.06-2.13-12.87-3.78-11.2-2.37-21.4-2.82-30.57.1-8.66,2.76-20.26,18.32-24.24,22.51l-.17.17c-.4.37-.79.56-1.02.63-2.08.67-3.96.76-4.54.76.33-.16,1.09-.58,2.95-2.72,1.13-1.3,2.26-4.22,3.41-6.18,11.78-20,23.71-24.6,35.25-24.2,10.21.36,19.11,3.85,25.22,7.2,3.26,1.79,5.73,3.55,7.17,4.75.01,0,.02.01.02.01,1.27.74,2.21,1.18,2.76,1.18Z"/>
    <path id="left_eyelid" data-name="left eyelid" class="cls-15" d="M571.9,481.31c-.76.57-2.04.91-2.93,1.03-.08.01-.13-.02-.33-.05-3.69-.59-6.92-1.71-10.58-3.04-6.22-2.29-13.59-4.13-23.97-.54-9.87,3.41-16.62,17.16-18.73,21.51-.5,1.03-.73,1.52-.69,1.23.07-.44.19-.9.24-1.37.99-9.92,9.85-26.18,22.27-28.58,14.16-2.74,29.07,7.72,29.68,8.01,3.44,1.64,5.17,1.7,5.03,1.81Z"/>
    <path class="cls-15" d="M319.16,662.14s-18.89-8.06-25.59-34.28c-15.32-59.92-54.06-41.79-27.1-7.52,0,0-.06-19.4,5.79-15.85,7.19,4.37-.33,17.86,19.89,43.88,10.53,13.51,27,13.77,27,13.77Z"/>
    <path id="left_brow" data-name="left brow" class="cls-19" d="M503.17,454.34c-6.98-.74-8.52-5.61-9.23-11.16-.49-3.86,4.81-15.29,2.03-6.17-.73,2.39.08,4.17.76,1.93s5.75-10.86,8.95-12.94c1.1-.71-1.15,2.31-2.07,4.8-.97,2.62,2.64-3.9,9.23-6.15s-.67.71-1.32,1.86c-1.93,3.4,7.36-5.57,23.05-6.64,16.62-1.13,40.15,7.5,34.36,6.5-2.15-.37,1.9.57,4.52,2.42,3.35,2.37,4.29,5.71,2.39,5.42-5.62-.83-17.08-2.4-29.81-.82s-17.73,4.19-26.99,10.01c-6.98,4.4-11.32,11.4-15.86,10.92Z"/>
    <path id="right_brow" data-name="right brow" class="cls-19" d="M421.5,475.09c6.3-5.99,4.15-11.93.65-17.92-2.43-4.16-16.25-11.39-6.65-4.53,2.52,1.8,3.07,4.16.71,2.47s-13.83-6.34-18.54-5.97c-1.61.13,2.87,1.41,5.65,3.16,2.93,1.84-5.53-1.84-13.71.92-8.17,2.76,1.2.2,2.71.83,4.46,1.88-11.43.07-27.64,10.85-17.18,11.42-33.79,37.63-28.85,32.29,4.18-4.52-9.72,21.64-4.67,16.67s18.77-18.98,32.47-27.03,20.57-9.25,34.06-10.51c10.17-.95,19.71,2.67,23.81-1.23Z"/>
    <path id="lower_lip" data-name="lower lip" class="cls-20" d="M462.54,669.92c22.87-6.1,65.42-17.53,76.14-20.3,13.29-3.44,39.03-13.71,46.41-19.33,3.79-2.88-6.74,15.51-19.01,25.38-11.28,9.08-26.74,14.63-45.71,16.41-22.71,2.13-66.65.19-57.83-2.17Z"/>
    <path id="upper_lip" data-name="upper lip" class="cls-15" d="M534.1,636.23c6.15-1.56,7.73-5.4,11.85-5.15s22.43-1.09,28.06-1.09c7.53,0,15.7-3.54,10.67,1.37-3.9,3.81-22.83,14.73-42.47,18.26-10.36,1.86-9.47,4.55-24.55,7.41-15.08,2.87-62.5,15.4-56.21,12.75s37.27-17.49,55.11-30.02c5.58-3.92,11.34-1.96,17.54-3.53Z"/>
    <path id="nose" class="cls-15" d="M552.4,595.74c-2.49,2.15-8.03,2.87-11.98,4.51-3.95,1.64-7.35,9.1-17.42,7.27-12.42-2.27-17.09,1.56-19.63,5.66-2.55,4.1-11.82,3.74-15.09-6.44,3.13,3.69,9.25,5.74,11.8,1.64,2.54-4.1,13.16-8.61,23.21-6.69,9.02,1.73,9.99-7.26,13.94-8.9,3.96-1.64,7.96,1.78,11.87-1.84,2.44-2.26,4.74-10.14,3.46-15.8-3.86-16.99-17.29-17.44-25.28-32.66,8.09,13.09,26.96,17.99,30.47,33.42,1.28,5.66.61,14.68-5.37,19.83Z"/>
  </g>
  <g id="Glasses" class="cls-13">
    <polygon class="cls-14" points="275.39 572.71 336.2 538.25 348.25 535.41 349.34 542.49 337.51 543.77 276.77 574.56 275.39 572.71"/>
    <path class="cls-17" d="M348.69,537.63c-.8-4.1-2.07-11.83,2.32-18.6,5.49-8.45,13.33-16.51,23.46-22.92,12.29-7.78,53.68-15.66,58.41-14.28s30.44,12.08,32.41,15.63,14.79,42.2,13.21,52.85-11.04,41.41-19.13,44.96-36.65,15.25-53.63,11.11c-11.64-2.84-28.49-10.13-40.43-24.77-10.63-13.04-14.47-32.85-16.64-43.98Z"/>
    <path class="cls-14" d="M486.32,489.13c6.62-1.89,12.25-1.35,14.31-1.27.57.02,1.12.22,1.6.57l4.11,4.05,1.46,4.88-6.03-5.29c-.5-.37-1.07-.58-1.66-.6-2.23-.09-8.19.49-14.34,2.28-4.4,1.28-10.09,4.02-12.35,5.42-.64.39-1.15,1.01-1.46,1.77l-3.33,8.18-1.57-5.73,2.31-5.06c.4-.88,1.29-2.04,2.02-2.53,2.24-1.51,7.86-4.66,14.91-6.67Z"/>
    <path class="cls-6" d="M626.91,455.2l-35.83,23.96c-.3-.83-.6-1.66-.88-2.49l34.08-29.71,2.63,8.24Z"/>
    <polygon class="cls-14" points="611.83 452.22 615.86 459.93 626.91 455.2 624.28 446.96 611.83 452.22"/>
    <path class="cls-17" d="M505.91,489.03c.77,8.95,16.47,41.37,22.42,45.4s26.07,20.16,40.49,21.38c14.42,1.23,37.23-10.76,42.24-17.56,3.85-5.23,14.16-13.84,14.09-35.02-.04-14.03-5.19-34.71-9.83-43.29-4.64-8.59-4.27-9.11-7.6-11.92s-14.46-9.35-23.74-11.04c-16.32-2.98-45.07,4.56-60.46,15.42-7.71,5.44-18.36,27.98-17.62,36.63Z"/>
  </g>
  <g id="Hair_front" data-name="Hair front">
    <path class="cls-3" d="M472.63,329.4c30.7-19.84,39.62,3.83,61.01,29.75,21.39,25.93,27,30.58,32.32,48.57,5.65,19.13,13.96,30.55,16.76,42.7,3.18,13.79,5.77-27.57,3.98-44.1-4.59-42.56-26.73-85.67-52.28-113.97-36.38-40.3-62.2-45.28-75.33-38.55s-5.31,87.78,13.54,75.6Z"/>
    <path class="cls-2" d="M508.33,293.39c-1.02,7.65-6.1,37.87-20.03,41.68-27.41,7.49-48.21,57.46-88.31,67.77-35.43,9.11-70.17,39.02-73.98,85.37-3.81,46.34-13.68,65.67-24.71,104.46-13.13,46.18-59.37,99.41-49.14,72.33,7.3-19.31,6.17-28.54,14.59-61.79,1.9-7.51-29.86,50.95-26.18,36.48,20.6-80.92-23.62-177.48-16.74-235.59,9.87-83.25,52.91-118.93,77.67-138.61,24.76-19.68,36.9-22.31,56.64-29.61,14.89-5.5,45.53-24.65,82.6-10.84,54.02,20.12,70.25,48.38,67.59,68.36Z"/>
  </g>
</svg>