<?xml version="1.0" encoding="UTF-8"?>
<svg id="Layer_1" data-name="Layer 1" xmlns="http://www.w3.org/2000/svg" viewBox="0 0 596.34 275.55">
  <defs>
    <style>
      .cls-1 {
        fill: #f3dfbf;
      }
    </style>
  </defs>
  <g>
    <path class="cls-1" d="M64.93,147.96v24.13h16.27v6.03h-16.27v26.15h17.21v6.03h-25.72v-68.38h25.72v6.03h-17.21Z"/>
    <path class="cls-1" d="M125.45,141.92l-14.94,68.38h-8.7l-14.94-68.38h8.51l11.92,55.31,12.01-55.31h6.15Z"/>
    <path class="cls-1" d="M150.7,192.2h-16.08l-3.97,18.1h-6.15l14.94-68.38h8.7l14.94,68.38h-8.51l-3.88-18.1ZM149.38,186.17l-6.71-30.87-6.71,30.87h13.43Z"/>
    <path class="cls-1" d="M205.65,141.92v68.38h-7.09l-20.81-51.28v51.28h-6.15v-68.38h8.04l19.86,48.87v-48.87h6.15Z"/>
  </g>
  <g>
    <path class="cls-1" d="M238.41,206.93v-13.88c1.91,2.49,4.72,5.8,10.14,5.8,6.83,0,11.65-9.53,11.65-28.79,0-14.08-4.32-20.51-9.04-27.55-5.62-8.28-11.75-17.19-11.75-41.01s6.73-36.25,18.88-36.25c4.72,0,7.43.83,9.24,1.86v13.05c-1.71-1.86-3.72-3.52-8.34-3.52-6.73,0-10.75,8.7-10.75,22.78s4.42,21.33,9.24,28.38c5.52,8.29,11.55,17.19,11.55,40.18,0,27.55-7.63,42.25-19.89,42.25-6.43,0-9.14-1.86-10.95-3.31Z"/>
    <path class="cls-1" d="M308.92,78.04h-13.56v132.2h-9.04V78.04h-13.56v-12.79h36.16v12.79Z"/>
    <path class="cls-1" d="M325.99,78.04v51.17h17.28v12.79h-17.28v55.44h18.28v12.79h-27.32V65.25h27.32v12.79h-18.28Z"/>
    <path class="cls-1" d="M390.17,210.24h-9.54l-10.14-60.55c-.6-3.41-1.71-8.53-3.72-8.53h-2.41v69.08h-9.04V65.25h14.86c12.25,0,17.38,6.61,17.38,36.03,0,26.01-6.13,34.12-12.15,36.25,2.61,2.77,3.62,7.89,4.12,11.09l10.65,61.62ZM370.18,129.22c5.52,0,8.34-6.18,8.34-27.93,0-19.83-2.81-23.24-8.34-23.24h-5.82v51.17h5.82Z"/>
    <path class="cls-1" d="M426.43,197.45v12.79h-27.32V65.25h9.04v132.2h18.28Z"/>
    <path class="cls-1" d="M434.46,65.25h9.04v144.99h-9.04V65.25Z"/>
    <path class="cls-1" d="M493.72,65.25v144.99h-7.53l-22.1-108.74v108.74h-6.53V65.25h8.54l21.09,103.63v-103.63h6.53Z"/>
    <path class="cls-1" d="M539.92,129.5v75c-4.52,4.14-8.84,5.8-13.76,5.8-15.77,0-20.39-14.71-20.39-72.51s3.62-72.51,21.39-72.51c5.42,0,10.08,1.77,12.59,3.22v13.22c-1.61-1.45-6.37-4.02-11.69-4.02-11.95,0-12.76,11.81-12.76,60.08s.8,60.08,11.75,60.08c1.51,0,2.71-.21,3.82-.62v-55.32h-7.53v-12.43h16.57Z"/>
  </g>
  <g>
    <path class="cls-1" d="M85.03,136.94l-18.79-35.52v35.52h-9.83v-71.66h9.83v32.57l18.79-32.57h8.19l-18.35,31.83,21.08,39.84h-10.92Z"/>
    <path class="cls-1" d="M149.81,117.97h-18.57l-4.59,18.97h-7.1l17.26-71.66h10.05l17.26,71.66h-9.83l-4.48-18.97ZM148.28,111.65l-7.76-32.35-7.76,32.35h15.51Z"/>
    <path class="cls-1" d="M195.9,65.28h9.83v71.66h-9.83v-71.66Z"/>
  </g>
</svg>